<svg version="1.1" xmlns="http://www.w3.org/2000/svg" xmlns:xlink="http://www.w3.org/1999/xlink" width="1293.4851" height="590.8" viewBox="0,0,1293.4851,590.8"><defs><radialGradient cx="606.74529" cy="345" r="623.99835" gradientUnits="userSpaceOnUse" id="color-1"><stop offset="0" stop-color="#ffffff"/><stop offset="1" stop-color="#ffffff" stop-opacity="0"/></radialGradient><radialGradient cx="614.32669" cy="350" r="623.99835" gradientUnits="userSpaceOnUse" id="color-2"><stop offset="0" stop-color="#ffffff"/><stop offset="1" stop-color="#ffffff" stop-opacity="0"/></radialGradient><radialGradient cx="621.90809" cy="355" r="623.99835" gradientUnits="userSpaceOnUse" id="color-3"><stop offset="0" stop-color="#ffffff"/><stop offset="1" stop-color="#ffffff" stop-opacity="0"/></radialGradient><radialGradient cx="629.48949" cy="360" r="623.99835" gradientUnits="userSpaceOnUse" id="color-4"><stop offset="0" stop-color="#ffffff"/><stop offset="1" stop-color="#ffffff" stop-opacity="0"/></radialGradient><radialGradient cx="637.07089" cy="365" r="623.99835" gradientUnits="userSpaceOnUse" id="color-5"><stop offset="0" stop-color="#ffffff"/><stop offset="1" stop-color="#ffffff" stop-opacity="0"/></radialGradient><radialGradient cx="644.65229" cy="370" r="623.99835" gradientUnits="userSpaceOnUse" id="color-6"><stop offset="0" stop-color="#ffffff"/><stop offset="1" stop-color="#ffffff" stop-opacity="0"/></radialGradient><radialGradient cx="652.23369" cy="375" r="623.99835" gradientUnits="userSpaceOnUse" id="color-7"><stop offset="0" stop-color="#ffffff"/><stop offset="1" stop-color="#ffffff" stop-opacity="0"/></radialGradient></defs><g transform="translate(17.25306,-64.6)"><g data-paper-data="{&quot;isPaintingLayer&quot;:true}" fill-rule="nonzero" stroke="none" stroke-width="0" stroke-linecap="butt" stroke-linejoin="miter" stroke-miterlimit="10" stroke-dasharray="" stroke-dashoffset="0" style="mix-blend-mode: normal"><path d="M1230.74363,345c0,154.86065 -279.37358,280.4 -623.99835,280.4c-344.62477,0 -623.99835,-125.53935 -623.99835,-280.4c0,-154.86064 279.37358,-280.4 623.99835,-280.4c344.62477,0 623.99835,125.53936 623.99835,280.4z" fill="url(#color-1)"/><path d="M1238.32503,350c0,154.86065 -279.37358,280.4 -623.99835,280.4c-344.62477,0 -623.99835,-125.53935 -623.99835,-280.4c0,-154.86064 279.37358,-280.4 623.99835,-280.4c344.62477,0 623.99835,125.53936 623.99835,280.4z" fill="url(#color-2)"/><path d="M1245.90644,355c0,154.86065 -279.37358,280.4 -623.99835,280.4c-344.62477,0 -623.99835,-125.53935 -623.99835,-280.4c0,-154.86064 279.37358,-280.4 623.99835,-280.4c344.62477,0 623.99835,125.53936 623.99835,280.4z" fill="url(#color-3)"/><path d="M1253.48784,360c0,154.86065 -279.37358,280.4 -623.99835,280.4c-344.62477,0 -623.99835,-125.53935 -623.99835,-280.4c0,-154.86064 279.37358,-280.4 623.99835,-280.4c344.62477,0 623.99835,125.53936 623.99835,280.4z" fill="url(#color-4)"/><path d="M1261.06924,365c0,154.86065 -279.37358,280.4 -623.99835,280.4c-344.62477,0 -623.99835,-125.53935 -623.99835,-280.4c0,-154.86064 279.37358,-280.4 623.99835,-280.4c344.62477,0 623.99835,125.53936 623.99835,280.4z" fill="url(#color-5)"/><path d="M1268.65064,370c0,154.86065 -279.37358,280.4 -623.99835,280.4c-344.62477,0 -623.99835,-125.53935 -623.99835,-280.4c0,-154.86064 279.37358,-280.4 623.99835,-280.4c344.62477,0 623.99835,125.53936 623.99835,280.4z" fill="url(#color-6)"/><path d="M1276.23204,375c0,154.86065 -279.37358,280.4 -623.99835,280.4c-344.62477,0 -623.99835,-125.53935 -623.99835,-280.4c0,-154.86064 279.37358,-280.4 623.99835,-280.4c344.62477,0 623.99835,125.53936 623.99835,280.4z" fill="url(#color-7)"/></g></g></svg>